<svg xmlns="http://www.w3.org/2000/svg" viewBox="0 0 165 32" width="165" height="32" role="img" fill="currentColor">
  <title>ALC — Agentic Layer Compiler &amp; Runtime</title>
  <path d="M27 19V23a4 4 0 0 1-4 4H9a4 4 0 0 1-4-4V9a4 4 0 0 1 4-4h14a4 4 0 0 1 4 4v4" fill="none" stroke="currentColor" stroke-width="4"/>
  <rect x="13" y="11" width="6" height="10" rx="1" fill="currentColor"/>
  <path d="M12.13 0H9.57L8.53 -3.31H3.92L2.88 0H0.39L4.75 -13H7.81ZM7.93 -5.41 6.88 -8.71 6.25 -10.76H6.16L5.55 -8.71L4.5 -5.41Z M21.99 0H14.41V-13H16.87V-2.18H21.99Z M29.54 0.22Q27.82 0.22 26.56 -0.52Q25.31 -1.27 24.62 -2.75Q23.94 -4.22 23.94 -6.41Q23.94 -8.6 24.62 -10.12Q25.31 -11.64 26.56 -12.43Q27.82 -13.22 29.54 -13.22Q31.28 -13.22 32.44 -12.48Q33.61 -11.73 34.29 -10.23L32.19 -9.11Q31.91 -9.99 31.27 -10.51Q30.63 -11.04 29.54 -11.04Q28.17 -11.04 27.36 -10.11Q26.55 -9.18 26.55 -7.5V-5.46Q26.55 -3.79 27.36 -2.88Q28.17 -1.96 29.54 -1.96Q30.64 -1.96 31.33 -2.55Q32.02 -3.14 32.34 -4.02L34.34 -2.84Q33.65 -1.4 32.46 -0.59Q31.28 0.22 29.54 0.22Z" transform="translate(35.61 18)"/>
  <path d="M4.85 0H3.83L3.41 -1.32H1.57L1.15 0H0.16L1.9 -5.2H3.12ZM3.17 -2.16 2.75 -3.48 2.5 -4.3H2.46L2.22 -3.48L1.8 -2.16Z M9.29 0.32Q9.29 0.73 9.09 1.01Q8.89 1.29 8.44 1.44Q7.99 1.58 7.25 1.58Q6.59 1.58 6.2 1.47Q5.8 1.36 5.62 1.15Q5.44 0.95 5.44 0.66Q5.44 0.34 5.62 0.15Q5.81 -0.03 6.13 -0.09V-0.17Q5.89 -0.23 5.76 -0.4Q5.63 -0.57 5.63 -0.81Q5.63 -1.11 5.85 -1.27Q6.06 -1.44 6.34 -1.5V-1.52Q6 -1.69 5.82 -1.98Q5.64 -2.27 5.64 -2.66Q5.64 -3.05 5.82 -3.35Q6.01 -3.65 6.37 -3.82Q6.72 -3.98 7.25 -3.98Q7.44 -3.98 7.61 -3.96Q7.78 -3.93 7.93 -3.88V-4.01Q7.93 -4.29 8.07 -4.43Q8.21 -4.58 8.48 -4.58H9.08V-3.84H8.26V-3.74Q8.56 -3.57 8.71 -3.29Q8.86 -3.01 8.86 -2.66Q8.86 -2.27 8.68 -1.98Q8.5 -1.68 8.14 -1.52Q7.78 -1.35 7.25 -1.35Q7.08 -1.35 6.93 -1.37Q6.78 -1.39 6.65 -1.42Q6.54 -1.37 6.46 -1.29Q6.38 -1.2 6.38 -1.08Q6.38 -0.93 6.5 -0.85Q6.63 -0.78 6.88 -0.78H7.92Q8.64 -0.78 8.96 -0.49Q9.29 -0.2 9.29 0.32ZM8.39 0.44Q8.39 0.25 8.24 0.15Q8.1 0.05 7.73 0.05H6.41Q6.3 0.12 6.25 0.23Q6.2 0.33 6.2 0.45Q6.2 0.67 6.39 0.8Q6.58 0.92 7.03 0.92H7.51Q7.97 0.92 8.18 0.8Q8.39 0.68 8.39 0.44ZM7.25 -2.01Q7.59 -2.01 7.77 -2.16Q7.95 -2.31 7.95 -2.6V-2.73Q7.95 -3.02 7.77 -3.17Q7.59 -3.33 7.25 -3.33Q6.91 -3.33 6.73 -3.17Q6.55 -3.02 6.55 -2.73V-2.6Q6.55 -2.31 6.73 -2.16Q6.91 -2.01 7.25 -2.01Z M11.64 0.09Q11.07 0.09 10.65 -0.16Q10.24 -0.41 10.02 -0.87Q9.81 -1.33 9.81 -1.95Q9.81 -2.56 10.02 -3.02Q10.23 -3.48 10.64 -3.73Q11.04 -3.98 11.61 -3.98Q12.22 -3.98 12.61 -3.71Q13 -3.44 13.19 -3Q13.38 -2.55 13.38 -2.02V-1.7H10.79V-1.61Q10.79 -1.19 11.03 -0.93Q11.27 -0.67 11.74 -0.67Q12.09 -0.67 12.32 -0.82Q12.55 -0.97 12.73 -1.2L13.24 -0.63Q13 -0.3 12.59 -0.11Q12.18 0.09 11.64 0.09ZM11.62 -3.26Q11.37 -3.26 11.18 -3.15Q11 -3.03 10.9 -2.83Q10.79 -2.62 10.79 -2.35V-2.29H12.39V-2.37Q12.39 -2.63 12.3 -2.83Q12.21 -3.04 12.04 -3.15Q11.87 -3.26 11.62 -3.26Z M15.4 0H14.44V-3.89H15.4V-3.24H15.44Q15.55 -3.55 15.81 -3.77Q16.07 -3.98 16.52 -3.98Q17.12 -3.98 17.44 -3.58Q17.77 -3.18 17.77 -2.46V0H16.81V-2.36Q16.81 -2.77 16.66 -2.98Q16.51 -3.19 16.17 -3.19Q15.98 -3.19 15.8 -3.12Q15.62 -3.06 15.51 -2.92Q15.4 -2.78 15.4 -2.57Z M20.95 0H20.26Q19.77 0 19.52 -0.26Q19.26 -0.52 19.26 -0.99V-3.13H18.68V-3.89H18.98Q19.2 -3.89 19.28 -3.99Q19.35 -4.09 19.35 -4.29V-4.95H20.21V-3.89H21.01V-3.13H20.21V-0.76H20.95Z M22.53 -4.45Q22.24 -4.45 22.11 -4.59Q21.97 -4.73 21.97 -4.93V-5.08Q21.97 -5.29 22.11 -5.43Q22.24 -5.56 22.53 -5.56Q22.83 -5.56 22.96 -5.43Q23.09 -5.29 23.09 -5.08V-4.93Q23.09 -4.73 22.96 -4.59Q22.83 -4.45 22.53 -4.45ZM22.06 0V-3.89H23.01V0Z M25.86 0.09Q25.01 0.09 24.54 -0.46Q24.07 -1.01 24.07 -1.95Q24.07 -2.88 24.54 -3.43Q25.01 -3.98 25.86 -3.98Q26.45 -3.98 26.84 -3.72Q27.22 -3.45 27.39 -3L26.61 -2.65Q26.55 -2.89 26.36 -3.05Q26.17 -3.21 25.86 -3.21Q25.47 -3.21 25.27 -2.96Q25.07 -2.71 25.07 -2.3V-1.59Q25.07 -1.18 25.27 -0.93Q25.47 -0.68 25.86 -0.68Q26.2 -0.68 26.39 -0.85Q26.58 -1.03 26.69 -1.29L27.42 -0.94Q27.23 -0.43 26.83 -0.17Q26.43 0.09 25.86 0.09Z M33.45 0H30.42V-5.2H31.4V-0.87H33.45Z M37.85 0H37.32Q37.11 0 36.94 -0.1Q36.78 -0.2 36.68 -0.39Q36.59 -0.59 36.59 -0.85V-0.93L36.83 -0.67H36.56Q36.46 -0.3 36.16 -0.1Q35.86 0.09 35.42 0.09Q34.83 0.09 34.51 -0.23Q34.19 -0.54 34.19 -1.06Q34.19 -1.46 34.38 -1.72Q34.58 -1.98 34.95 -2.12Q35.33 -2.25 35.85 -2.25H36.51V-2.54Q36.51 -2.86 36.34 -3.04Q36.17 -3.22 35.79 -3.22Q35.46 -3.22 35.25 -3.07Q35.04 -2.93 34.91 -2.73L34.34 -3.23Q34.55 -3.57 34.91 -3.78Q35.27 -3.98 35.85 -3.98Q36.64 -3.98 37.05 -3.62Q37.47 -3.26 37.47 -2.59V-0.76H37.85ZM36.51 -1.68H35.9Q35.53 -1.68 35.34 -1.55Q35.15 -1.43 35.15 -1.2V-1.07Q35.15 -0.84 35.31 -0.72Q35.47 -0.6 35.74 -0.6Q35.96 -0.6 36.13 -0.67Q36.3 -0.73 36.41 -0.86Q36.51 -0.98 36.51 -1.16Z M40.55 -1.83 41.23 -3.89H42.13L40.56 0.69Q40.47 0.97 40.33 1.15Q40.2 1.32 39.99 1.41Q39.77 1.49 39.45 1.49H38.88V0.73H39.58L39.76 0.19L38.37 -3.89H39.32L39.99 -1.83L40.25 -0.85H40.29Z M44.55 0.09Q43.98 0.09 43.57 -0.16Q43.16 -0.41 42.94 -0.87Q42.72 -1.33 42.72 -1.95Q42.72 -2.56 42.93 -3.02Q43.15 -3.48 43.55 -3.73Q43.95 -3.98 44.52 -3.98Q45.13 -3.98 45.52 -3.71Q45.91 -3.44 46.1 -3Q46.29 -2.55 46.29 -2.02V-1.7H43.71V-1.61Q43.71 -1.19 43.95 -0.93Q44.18 -0.67 44.65 -0.67Q45.01 -0.67 45.24 -0.82Q45.47 -0.97 45.64 -1.2L46.16 -0.63Q45.92 -0.3 45.5 -0.11Q45.09 0.09 44.55 0.09ZM44.54 -3.26Q44.28 -3.26 44.1 -3.15Q43.91 -3.03 43.81 -2.83Q43.71 -2.62 43.71 -2.35V-2.29H45.3V-2.37Q45.3 -2.63 45.21 -2.83Q45.13 -3.04 44.96 -3.15Q44.78 -3.26 44.54 -3.26Z M48.31 0H47.36V-3.89H48.31V-3.08H48.35Q48.4 -3.29 48.52 -3.47Q48.65 -3.66 48.86 -3.78Q49.07 -3.89 49.38 -3.89H49.58V-2.99H49.29Q48.97 -2.99 48.75 -2.93Q48.53 -2.86 48.42 -2.73Q48.31 -2.6 48.31 -2.38Z M54.57 0.09Q53.88 0.09 53.38 -0.21Q52.88 -0.51 52.6 -1.1Q52.33 -1.69 52.33 -2.56Q52.33 -3.44 52.6 -4.05Q52.88 -4.66 53.38 -4.97Q53.88 -5.29 54.57 -5.29Q55.27 -5.29 55.73 -4.99Q56.2 -4.69 56.47 -4.09L55.63 -3.64Q55.52 -3.99 55.26 -4.2Q55.01 -4.42 54.57 -4.42Q54.02 -4.42 53.7 -4.04Q53.37 -3.67 53.37 -3V-2.18Q53.37 -1.52 53.7 -1.15Q54.02 -0.78 54.57 -0.78Q55.01 -0.78 55.29 -1.02Q55.56 -1.26 55.69 -1.61L56.49 -1.14Q56.21 -0.56 55.74 -0.24Q55.27 0.09 54.57 0.09Z M59.04 0.09Q58.49 0.09 58.08 -0.16Q57.68 -0.41 57.46 -0.87Q57.24 -1.33 57.24 -1.95Q57.24 -2.57 57.46 -3.03Q57.68 -3.48 58.08 -3.73Q58.49 -3.98 59.04 -3.98Q59.6 -3.98 60 -3.73Q60.41 -3.48 60.63 -3.03Q60.85 -2.57 60.85 -1.95Q60.85 -1.33 60.63 -0.87Q60.41 -0.41 60 -0.16Q59.6 0.09 59.04 0.09ZM59.04 -0.68Q59.42 -0.68 59.63 -0.91Q59.85 -1.15 59.85 -1.58V-2.31Q59.85 -2.75 59.63 -2.98Q59.42 -3.21 59.04 -3.21Q58.68 -3.21 58.46 -2.98Q58.24 -2.75 58.24 -2.31V-1.58Q58.24 -1.15 58.46 -0.91Q58.68 -0.68 59.04 -0.68Z M62.87 0H61.91V-3.89H62.87V-3.24H62.91Q63.02 -3.55 63.27 -3.76Q63.52 -3.98 63.95 -3.98Q64.35 -3.98 64.64 -3.79Q64.94 -3.59 65.07 -3.19H65.09Q65.2 -3.52 65.51 -3.75Q65.82 -3.98 66.28 -3.98Q66.85 -3.98 67.16 -3.58Q67.47 -3.18 67.47 -2.46V0H66.52V-2.36Q66.52 -2.78 66.37 -2.99Q66.22 -3.19 65.89 -3.19Q65.71 -3.19 65.54 -3.12Q65.38 -3.06 65.27 -2.92Q65.17 -2.78 65.17 -2.57V0H64.22V-2.36Q64.22 -2.78 64.06 -2.99Q63.91 -3.19 63.59 -3.19Q63.42 -3.19 63.25 -3.12Q63.08 -3.06 62.97 -2.92Q62.87 -2.78 62.87 -2.57Z M68.75 1.49V-3.89H69.71V-3.24H69.74Q69.84 -3.58 70.14 -3.78Q70.43 -3.98 70.81 -3.98Q71.31 -3.98 71.64 -3.74Q71.98 -3.5 72.16 -3.05Q72.34 -2.6 72.34 -1.95Q72.34 -1.3 72.16 -0.84Q71.98 -0.39 71.64 -0.15Q71.31 0.09 70.81 0.09Q70.43 0.09 70.14 -0.11Q69.85 -0.32 69.74 -0.65H69.71V1.49ZM70.51 -0.7Q70.88 -0.7 71.11 -0.95Q71.34 -1.2 71.34 -1.61V-2.28Q71.34 -2.7 71.11 -2.94Q70.88 -3.19 70.51 -3.19Q70.28 -3.19 70.1 -3.12Q69.92 -3.04 69.81 -2.9Q69.71 -2.76 69.71 -2.57V-1.33Q69.71 -1.14 69.81 -0.99Q69.92 -0.85 70.1 -0.77Q70.28 -0.7 70.51 -0.7Z M73.92 -4.45Q73.63 -4.45 73.5 -4.59Q73.36 -4.73 73.36 -4.93V-5.08Q73.36 -5.29 73.5 -5.43Q73.63 -5.56 73.92 -5.56Q74.22 -5.56 74.35 -5.43Q74.48 -5.29 74.48 -5.08V-4.93Q74.48 -4.73 74.35 -4.59Q74.22 -4.45 73.92 -4.45ZM73.45 0V-3.89H74.4V0Z M77.19 0H76.68Q76.19 0 75.95 -0.25Q75.72 -0.49 75.72 -0.94V-5.51H76.67V-0.76H77.19Z M79.71 0.09Q79.13 0.09 78.72 -0.16Q78.31 -0.41 78.09 -0.87Q77.88 -1.33 77.88 -1.95Q77.88 -2.56 78.09 -3.02Q78.3 -3.48 78.71 -3.73Q79.11 -3.98 79.68 -3.98Q80.29 -3.98 80.68 -3.71Q81.07 -3.44 81.26 -3Q81.45 -2.55 81.45 -2.02V-1.7H78.86V-1.61Q78.86 -1.19 79.1 -0.93Q79.34 -0.67 79.81 -0.67Q80.16 -0.67 80.39 -0.82Q80.62 -0.97 80.8 -1.2L81.31 -0.63Q81.07 -0.3 80.66 -0.11Q80.25 0.09 79.71 0.09ZM79.69 -3.26Q79.44 -3.26 79.25 -3.15Q79.07 -3.03 78.97 -2.83Q78.86 -2.62 78.86 -2.35V-2.29H80.46V-2.37Q80.46 -2.63 80.37 -2.83Q80.28 -3.04 80.11 -3.15Q79.94 -3.26 79.69 -3.26Z M83.47 0H82.51V-3.89H83.47V-3.08H83.5Q83.55 -3.29 83.68 -3.47Q83.81 -3.66 84.02 -3.78Q84.23 -3.89 84.53 -3.89H84.74V-2.99H84.44Q84.12 -2.99 83.9 -2.93Q83.69 -2.86 83.58 -2.73Q83.47 -2.6 83.47 -2.38Z M91.17 0 90.74 -0.47H90.72Q90.58 -0.34 90.38 -0.21Q90.17 -0.08 89.89 0Q89.61 0.09 89.23 0.09Q88.68 0.09 88.29 -0.1Q87.91 -0.29 87.71 -0.62Q87.52 -0.95 87.52 -1.36Q87.52 -1.73 87.66 -1.99Q87.8 -2.25 88.04 -2.45Q88.28 -2.65 88.57 -2.81Q88.34 -3.07 88.16 -3.38Q87.98 -3.69 87.98 -4.04Q87.98 -4.39 88.17 -4.67Q88.35 -4.95 88.69 -5.12Q89.02 -5.29 89.48 -5.29Q89.89 -5.29 90.21 -5.15Q90.53 -5.01 90.72 -4.75Q90.9 -4.49 90.9 -4.12Q90.9 -3.79 90.76 -3.54Q90.61 -3.29 90.36 -3.09Q90.12 -2.89 89.82 -2.71L90.73 -1.73Q90.84 -1.98 90.89 -2.26Q90.94 -2.55 90.96 -2.83H92.14V-2.03H91.65Q91.59 -1.78 91.5 -1.54Q91.42 -1.31 91.31 -1.11L92.34 0ZM89.45 -4.55Q89.21 -4.55 89.06 -4.41Q88.9 -4.27 88.9 -4.04V-4Q88.9 -3.88 88.95 -3.77Q88.99 -3.66 89.09 -3.53Q89.2 -3.4 89.34 -3.23Q89.54 -3.34 89.68 -3.46Q89.83 -3.57 89.91 -3.71Q89.99 -3.85 89.99 -4.02V-4.06Q89.99 -4.22 89.92 -4.32Q89.85 -4.43 89.72 -4.49Q89.6 -4.55 89.45 -4.55ZM89.36 -0.71Q89.54 -0.71 89.7 -0.75Q89.85 -0.79 89.99 -0.85Q90.12 -0.92 90.23 -1.02L89.04 -2.29Q88.87 -2.2 88.74 -2.08Q88.62 -1.97 88.55 -1.83Q88.49 -1.7 88.49 -1.52V-1.43Q88.49 -1.11 88.72 -0.91Q88.94 -0.71 89.36 -0.71Z M96.2 -2V0H95.22V-5.2H97.57Q98.05 -5.2 98.39 -5Q98.73 -4.8 98.92 -4.45Q99.11 -4.09 99.11 -3.59Q99.11 -3.06 98.86 -2.67Q98.62 -2.28 98.13 -2.12L99.2 0H98.11L97.14 -2ZM96.2 -2.83H97.47Q97.66 -2.83 97.8 -2.9Q97.94 -2.97 98.01 -3.1Q98.09 -3.23 98.09 -3.42V-3.76Q98.09 -3.95 98.01 -4.08Q97.94 -4.21 97.8 -4.28Q97.66 -4.34 97.47 -4.34H96.2Z M102.66 0V-0.65H102.62Q102.52 -0.36 102.27 -0.13Q102.02 0.09 101.53 0.09Q100.94 0.09 100.62 -0.31Q100.29 -0.7 100.29 -1.43V-3.89H101.24V-1.53Q101.24 -1.13 101.4 -0.91Q101.56 -0.7 101.9 -0.7Q102.09 -0.7 102.26 -0.77Q102.44 -0.83 102.55 -0.97Q102.66 -1.11 102.66 -1.32V-3.89H103.61V0Z M105.89 0H104.94V-3.89H105.89V-3.24H105.93Q106.05 -3.55 106.3 -3.77Q106.56 -3.98 107.02 -3.98Q107.61 -3.98 107.94 -3.58Q108.26 -3.18 108.26 -2.46V0H107.31V-2.36Q107.31 -2.77 107.16 -2.98Q107.01 -3.19 106.67 -3.19Q106.47 -3.19 106.29 -3.12Q106.12 -3.06 106 -2.92Q105.89 -2.78 105.89 -2.57Z M111.44 0H110.76Q110.27 0 110.01 -0.26Q109.75 -0.52 109.75 -0.99V-3.13H109.18V-3.89H109.48Q109.69 -3.89 109.77 -3.99Q109.85 -4.09 109.85 -4.29V-4.95H110.7V-3.89H111.5V-3.13H110.7V-0.76H111.44Z M113.03 -4.45Q112.74 -4.45 112.6 -4.59Q112.47 -4.73 112.47 -4.93V-5.08Q112.47 -5.29 112.6 -5.43Q112.74 -5.56 113.03 -5.56Q113.32 -5.56 113.45 -5.43Q113.59 -5.29 113.59 -5.08V-4.93Q113.59 -4.73 113.45 -4.59Q113.32 -4.45 113.03 -4.45ZM112.55 0V-3.89H113.5V0Z M115.78 0H114.82V-3.89H115.78V-3.24H115.82Q115.93 -3.55 116.18 -3.76Q116.43 -3.98 116.86 -3.98Q117.26 -3.98 117.55 -3.79Q117.85 -3.59 117.98 -3.19H118Q118.11 -3.52 118.42 -3.75Q118.73 -3.98 119.19 -3.98Q119.76 -3.98 120.07 -3.58Q120.38 -3.18 120.38 -2.46V0H119.43V-2.36Q119.43 -2.78 119.28 -2.99Q119.13 -3.19 118.8 -3.19Q118.62 -3.19 118.45 -3.12Q118.28 -3.06 118.18 -2.92Q118.08 -2.78 118.08 -2.57V0H117.13V-2.36Q117.13 -2.78 116.97 -2.99Q116.82 -3.19 116.5 -3.19Q116.32 -3.19 116.16 -3.12Q115.99 -3.06 115.88 -2.92Q115.78 -2.78 115.78 -2.57Z M123.24 0.09Q122.66 0.09 122.25 -0.16Q121.84 -0.41 121.62 -0.87Q121.4 -1.33 121.4 -1.95Q121.4 -2.56 121.62 -3.02Q121.83 -3.48 122.23 -3.73Q122.64 -3.98 123.21 -3.98Q123.82 -3.98 124.21 -3.71Q124.6 -3.44 124.79 -3Q124.98 -2.55 124.98 -2.02V-1.7H122.39V-1.61Q122.39 -1.19 122.63 -0.93Q122.87 -0.67 123.34 -0.67Q123.69 -0.67 123.92 -0.82Q124.15 -0.97 124.33 -1.2L124.84 -0.63Q124.6 -0.3 124.19 -0.11Q123.78 0.09 123.24 0.09ZM123.22 -3.26Q122.97 -3.26 122.78 -3.15Q122.6 -3.03 122.5 -2.83Q122.39 -2.62 122.39 -2.35V-2.29H123.99V-2.37Q123.99 -2.63 123.9 -2.83Q123.81 -3.04 123.64 -3.15Q123.47 -3.26 123.22 -3.26Z" transform="translate(35.84 27)" opacity="0.62"/>
</svg>
